<mxfile host="app.diagrams.net" modified="2020-12-10T15:09:12.972Z" agent="5.0 (Windows NT 10.0; Win64; x64) AppleWebKit/537.36 (KHTML, like Gecko) Chrome/87.0.4280.88 Safari/537.36" etag="tRgAF2TZDbpeJ8zYzpP6" version="14.0.0" type="github">
  <diagram id="mXlvJsxum9yhDYjEFibP" name="Shared Services Tenant">
    <mxGraphModel dx="2062" dy="1065" grid="1" gridSize="10" guides="1" tooltips="1" connect="1" arrows="1" fold="1" page="1" pageScale="1" pageWidth="1700" pageHeight="1100" math="0" shadow="0">
      <root>
        <mxCell id="lJFQXnWoWqQNvtrmf9sN-0" />
        <mxCell id="lJFQXnWoWqQNvtrmf9sN-1" parent="lJFQXnWoWqQNvtrmf9sN-0" />
        <mxCell id="lJFQXnWoWqQNvtrmf9sN-2" style="vsdxID=5;fillColor=none;gradientColor=none;labelBackgroundColor=none;rounded=0;strokeColor=none;html=1;whiteSpace=wrap;" parent="lJFQXnWoWqQNvtrmf9sN-1" vertex="1">
          <mxGeometry x="434" y="330" width="100" height="90" as="geometry" />
        </mxCell>
        <mxCell id="lJFQXnWoWqQNvtrmf9sN-3" style="vsdxID=6;fillColor=#000000;gradientColor=none;shape=stencil(pVpdc9w2DPw198ohCX4+p8n/yDRO7alrZxyndf99eXMSSe1K5Gn65iiglgCBxRK6i3z6+fj1x8PF6p/vb69/Pvzz9O398SK/Xax9enl8eHt6L39d5PNFPn1/fXv44+3118u3279/fL1aXv/66/Xv6xs+butMVPa6yOp/bw9iUPr25MvN/vdfb7cF5mZgrUrLiuVJTMoujz7sYpSq0fIkZmXyYiS3R+IrtqDRAbi07Rp+7wIlWYUpuDPVSKobUUbgTpPnNVgV3GmAFiXgdiZkrfzYbavcFjl4ZQLEPGDMfVISt+Dd6a2ByCrG4YE7BHdRZQRvRmsgyun6KbhVeeh555SpWRP9FrwLz7qdrFLYgkuqRut2ypuG4PUs180kpQHaWQx6b7R66dDv4pZ1Q2iHfrclDdwReGf0P8B9zdAVPCqDnlO6FSOIuYuY6iU63vTYz08vHR35VmJ1r8PkLNkLhFBOVTBOEQnBisoJ9oo7tSoMidBhjOqCLkYAa5WJU1gz9hhhjYoz2M7kCNYoO4T1BnMCadc3bra1uQQohSDI+c3oALksQeTuvQtUcHNohwQwh6YqNEkZQPaYXMXGIzaEe9vltjUQV9apmxz3RE+b1ECPGulRb3dnqBFPQYEZxSmBdIA+GMzK9APYaf+31AhTVCLgL7WDbKgdOIvZ0Izu5uT+vYdcU4yAkr0GZK3yMA9dQuSUV8kwQE6Ju0FAt1Ph8TQCF+oGO+CWWlHySgPXdWJzPXBUm9tSmKvTrZrtuvESWXUyruuCxmrkmDFKzNaxAAdqnMpDKck1W4pBQEQ70rGmdENu78hqY01D8n2HTTule8ynkok1xiLWY6vu3WlchchdYJqAAUlTAu7GScztS1PtCnWwlg5C4ZPdFNsm8Cwht+nbsRsG6IgP4x29UUij0k2MCrNJhrtvYr24OQzojgLaAZ9JL0FhzvLUQguQovigdAxdxK6XwmHdGpKbbUmF7owsG63gie5CCA5cmCCV5pu95+5kUCvyzcmgVhTlx8B4dSmlBqoJ5cGOZrLUoakcthGal89Z+215tlpr3WOomak4d5KFOH4vUYl06quPTkAwTwsJeOgvhu7spRQ9Hr6nIrGz4yfBXpoU3sk6o6ZfvCFwoIbptMJQl2lLGrinCu2M7geHCvWgVuabpWPy9R0fTW5AoIqU1iilDe41ROWGHEpM1iv0dXiF0GV7ARKErvhUFnC9mVURDCgd0F4s3g97ImdAucZZoj3M/XJ9zRaiShxdbsF+qDMMKcq2ZNAgeiMho7vB6Uz3wfFQd8HDSXAeE/Z5eijvQtkzD0jB8+jWtNtXWdsbc/TKmNFWxdAUmQe5llRT20WLEw3XKD2BI6bpDD0HBeQ1zAOV0I3uFl+T0oOBG9m3wfLdw8Fkqb37RFfwesc9HIpkP7k1BWqouUgcaKiB8jsnmv5H4sucVwGyz1oG4mS0Hli7M7agQmgnJCswCIk+gUSeQnSRatOWsyeQSPX352q37rZRQJcggjZykHdQN3pb45O0Pls2c/ttWeaTRZOxZDRRY+IJSjfaEjrXe6dWlC1WrY8+LKXgmi1OGWiGkW++fvKpMBLP5qL6QIvt1Gu3wzU7EHrmdaBvdTuDQh6w9OciZHRfqnYLlgdGmXRsz7mXlRvkdj719lmmnrPeVoFHLef12syP5l7E4DsKhZuHLzc1OBbPCqUaHYzVIcxn7UvtyVABRf4+XD8pt1ojOX+lYbjwca01oyNwEF/9W1uZo6Lp9idkJAd+U/86FdcUxtbzltNnQ510Q8KwpE3g1jRXExxmu6g0WJpv9Z/GBRwWNNn/BEr0gfZUVOmOD/SeFEHvj5DRUZRgs1MGOGtf/mi/Vfn+9Px8+6lL///425by6Pa7GPn8Hw==);strokeColor=none;spacingTop=-3;spacingBottom=-3;spacingLeft=-3;spacingRight=-3;labelBackgroundColor=none;rounded=0;html=1;whiteSpace=wrap;" parent="lJFQXnWoWqQNvtrmf9sN-2" vertex="1">
          <mxGeometry width="100" height="90" as="geometry" />
        </mxCell>
        <mxCell id="lJFQXnWoWqQNvtrmf9sN-8" value="Infrastructure Network&lt;br&gt;Instantiate per AZ" style="text;html=1;align=center;verticalAlign=middle;resizable=0;points=[];autosize=1;fontSize=20;" parent="lJFQXnWoWqQNvtrmf9sN-1" vertex="1">
          <mxGeometry x="724" y="100" width="210" height="50" as="geometry" />
        </mxCell>
        <mxCell id="lJFQXnWoWqQNvtrmf9sN-9" style="vsdxID=5;fillColor=none;gradientColor=none;labelBackgroundColor=none;rounded=0;strokeColor=none;html=1;whiteSpace=wrap;fontSize=20;" parent="lJFQXnWoWqQNvtrmf9sN-1" vertex="1">
          <mxGeometry x="534" y="330" width="90" height="90" as="geometry" />
        </mxCell>
        <mxCell id="lJFQXnWoWqQNvtrmf9sN-10" style="vsdxID=6;fillColor=#000000;gradientColor=none;shape=stencil(pZbRcoIwEEW/hlcmJBtInq39D6diZWrFQW3x7wsTEHZTliBvBA57N3fvZBKpzfW4u+SRFNdbVX7lv8X+dozUWyRlcT7mVXFrniK1jdTmUFb5Z1Xez3u3vuxasn36Ln/aCrX7T4v2FykebulW7478uFcOTdxHKWPo6GSMi1qi5UNSvlYYUEh8Qk5grSyLUyw36qd7kwiBBTVR7IEJyUGjVx0qUolec9SXokjQPgfc87n2NB7Y6ql9IsFTcQ6cOJsNm7LhABoOS8ZFZpVp6hsscY2IDfLPdABNB/CeAZsMTZNB5CwZ0KghRYig/Vki1zQgSSg0DYVN+R3iCbKxwCjOhUr6VjoY+nj+WzlZAeuEg71GluIQm2kchuOle2EXVYc+AYE468ssjkeU2mc2Qqr7ONu7Ngt88Wrzrvs4O1NjYrMGX+rLOpycrySNKZtG8zqcMT0DxOEwOSQM64bWJLJs5ZdR3okZGA/E80IqboOwAm4Ol/CuF8F8G95QZnA88O50DgvSjB9zePMwXFoPxenk7rzj7/SS27xyF2S1/QM=);strokeColor=none;spacingTop=-3;spacingBottom=-3;spacingLeft=-3;spacingRight=-3;labelBackgroundColor=none;rounded=0;html=1;whiteSpace=wrap;" parent="lJFQXnWoWqQNvtrmf9sN-9" vertex="1">
          <mxGeometry width="90" height="90" as="geometry" />
        </mxCell>
        <mxCell id="lJFQXnWoWqQNvtrmf9sN-11" value="&lt;p style=&quot;line-height: 100%&quot;&gt;Shared Services Tier-0&lt;br&gt;&lt;ul&gt;&lt;li&gt;&lt;font style=&quot;font-size: 12px ; line-height: 100%&quot;&gt;8-Way BGP ECMP&lt;/font&gt;&lt;/li&gt;&lt;li&gt;&lt;font style=&quot;font-size: 12px ; line-height: 100%&quot;&gt;Peers to tenants via physical fabric&lt;/font&gt;&lt;/li&gt;&lt;li&gt;&lt;font style=&quot;font-size: 12px ; line-height: 100%&quot;&gt;Reserved Private AS (or new reserved public)&lt;/font&gt;&lt;/li&gt;&lt;/ul&gt;&lt;/p&gt;&lt;p style=&quot;line-height: 100%&quot;&gt;&lt;br&gt;&lt;/p&gt;" style="text;html=1;align=left;verticalAlign=top;resizable=0;points=[];autosize=1;fontSize=20;labelPosition=center;verticalLabelPosition=middle;" parent="lJFQXnWoWqQNvtrmf9sN-1" vertex="1">
          <mxGeometry x="704" y="300" width="300" height="200" as="geometry" />
        </mxCell>
        <mxCell id="lJFQXnWoWqQNvtrmf9sN-12" value="" style="pointerEvents=1;shadow=0;dashed=0;html=1;strokeColor=none;fillColor=#434445;aspect=fixed;labelPosition=center;verticalLabelPosition=bottom;verticalAlign=top;align=center;outlineConnect=0;shape=mxgraph.vvd.physical_upstream_router;fontSize=20;" parent="lJFQXnWoWqQNvtrmf9sN-1" vertex="1">
          <mxGeometry x="544" y="90" width="90" height="90" as="geometry" />
        </mxCell>
        <mxCell id="lJFQXnWoWqQNvtrmf9sN-13" value="" style="pointerEvents=1;shadow=0;dashed=0;html=1;strokeColor=none;fillColor=#434445;aspect=fixed;labelPosition=center;verticalLabelPosition=bottom;verticalAlign=top;align=center;outlineConnect=0;shape=mxgraph.vvd.physical_upstream_router;fontSize=20;" parent="lJFQXnWoWqQNvtrmf9sN-1" vertex="1">
          <mxGeometry x="1024" y="90" width="90" height="90" as="geometry" />
        </mxCell>
        <mxCell id="lJFQXnWoWqQNvtrmf9sN-14" value="" style="pointerEvents=1;shadow=0;dashed=0;html=1;strokeColor=none;fillColor=#434445;aspect=fixed;labelPosition=center;verticalLabelPosition=bottom;verticalAlign=top;align=center;outlineConnect=0;shape=mxgraph.vvd.nsx_edge_and_load_balancer;fontSize=20;" parent="lJFQXnWoWqQNvtrmf9sN-1" vertex="1">
          <mxGeometry x="423" y="600" width="111.11" height="90" as="geometry" />
        </mxCell>
        <mxCell id="lJFQXnWoWqQNvtrmf9sN-15" value="" style="pointerEvents=1;shadow=0;dashed=0;html=1;strokeColor=none;fillColor=#434445;aspect=fixed;labelPosition=center;verticalLabelPosition=bottom;verticalAlign=top;align=center;outlineConnect=0;shape=mxgraph.vvd.nsx_esg;fontSize=20;" parent="lJFQXnWoWqQNvtrmf9sN-1" vertex="1">
          <mxGeometry x="347" y="330" width="90" height="90" as="geometry" />
        </mxCell>
        <mxCell id="lJFQXnWoWqQNvtrmf9sN-16" value="" style="pointerEvents=1;shadow=0;dashed=0;html=1;strokeColor=none;fillColor=#434445;aspect=fixed;labelPosition=center;verticalLabelPosition=bottom;verticalAlign=top;align=center;outlineConnect=0;shape=mxgraph.vvd.logical_distribution;fontSize=20;" parent="lJFQXnWoWqQNvtrmf9sN-1" vertex="1">
          <mxGeometry x="534" y="600" width="90" height="90" as="geometry" />
        </mxCell>
        <mxCell id="lJFQXnWoWqQNvtrmf9sN-17" value="&lt;p style=&quot;line-height: 100%&quot;&gt;Shared Services Tier-1&lt;br&gt;&lt;/p&gt;&lt;ul&gt;&lt;li&gt;&lt;font style=&quot;font-size: 12px ; line-height: 100%&quot;&gt;A/P &amp;lt;size&amp;gt; SR&lt;/font&gt;&lt;/li&gt;&lt;li&gt;&lt;font style=&quot;font-size: 12px ; line-height: 100%&quot;&gt;&lt;span&gt;Provides Universal Logical Services&lt;/span&gt;&lt;/font&gt;&lt;/li&gt;&lt;li&gt;&lt;font style=&quot;font-size: 12px ; line-height: 100%&quot;&gt;&lt;span&gt;Stepping Point for remote administration&lt;/span&gt;&lt;/font&gt;&lt;/li&gt;&lt;li&gt;&lt;font style=&quot;font-size: 12px ; line-height: 100%&quot;&gt;&lt;span&gt;Public IP Prefix Recommended&lt;/span&gt;&lt;/font&gt;&lt;/li&gt;&lt;li&gt;&lt;font style=&quot;font-size: 12px ; line-height: 100%&quot;&gt;&lt;span&gt;Advertise Connected, Load Balancer&lt;/span&gt;&lt;/font&gt;&lt;/li&gt;&lt;li&gt;&lt;font style=&quot;font-size: 12px ; line-height: 100%&quot;&gt;&lt;span&gt;Reserved Private AS (or new reserved public) to prevent route conflict and ensure customers can control routing&lt;/span&gt;&lt;/font&gt;&lt;/li&gt;&lt;/ul&gt;&lt;p&gt;&lt;/p&gt;&lt;p style=&quot;line-height: 100%&quot;&gt;&lt;br&gt;&lt;/p&gt;" style="text;html=1;align=left;verticalAlign=top;resizable=0;points=[];autosize=1;fontSize=20;labelPosition=center;verticalLabelPosition=middle;spacing=0;" parent="lJFQXnWoWqQNvtrmf9sN-1" vertex="1">
          <mxGeometry x="704" y="550" width="650" height="270" as="geometry" />
        </mxCell>
        <mxCell id="lJFQXnWoWqQNvtrmf9sN-18" value="" style="pointerEvents=1;shadow=0;dashed=0;html=1;strokeColor=none;fillColor=#434445;aspect=fixed;labelPosition=center;verticalLabelPosition=bottom;verticalAlign=top;align=center;outlineConnect=0;shape=mxgraph.vvd.site_container;fontSize=20;" parent="lJFQXnWoWqQNvtrmf9sN-1" vertex="1">
          <mxGeometry x="445.8" y="850" width="89.1" height="90" as="geometry" />
        </mxCell>
        <mxCell id="lJFQXnWoWqQNvtrmf9sN-19" value="" style="pointerEvents=1;shadow=0;dashed=0;html=1;strokeColor=none;fillColor=#434445;aspect=fixed;labelPosition=center;verticalLabelPosition=bottom;verticalAlign=top;align=center;outlineConnect=0;shape=mxgraph.vvd.vm_group;fontSize=20;" parent="lJFQXnWoWqQNvtrmf9sN-1" vertex="1">
          <mxGeometry x="534.9" y="850" width="89.1" height="90" as="geometry" />
        </mxCell>
        <mxCell id="lJFQXnWoWqQNvtrmf9sN-20" value="Consumable Services" style="text;html=1;align=center;verticalAlign=middle;resizable=0;points=[];autosize=1;fontSize=20;" parent="lJFQXnWoWqQNvtrmf9sN-1" vertex="1">
          <mxGeometry x="704" y="880" width="210" height="30" as="geometry" />
        </mxCell>
      </root>
    </mxGraphModel>
  </diagram>
</mxfile>
